<svg width="30" height="29" viewBox="0 0 30 29" fill="none" xmlns="http://www.w3.org/2000/svg">
<g clip-path="url(#clip0_1_267)">
<path d="M19.9034 15.5726V25.1557M9.95169 15.5726V25.1557M14.9275 17.9683V27.5514M24.8792 19.861C26.1869 19.3095 27.2578 18.3415 27.9121 17.1197C28.5664 15.8978 28.7643 14.4964 28.4725 13.1506C28.1808 11.8049 27.4171 10.5968 26.3098 9.72906C25.2025 8.86134 23.8189 8.38684 22.3913 8.38522H20.8239C20.4296 6.91484 19.678 5.55575 18.6312 4.41998C17.5843 3.2842 16.2722 2.40426 14.8028 1.85269C13.3335 1.30112 11.7491 1.0937 10.1802 1.24754C8.61126 1.40138 7.10278 1.91208 5.77906 2.73752C4.45535 3.56297 3.3543 4.67954 2.56667 5.9952C1.77905 7.31085 1.3274 8.78792 1.24895 10.3047C1.17051 11.8214 1.46751 13.3344 2.11549 14.7189C2.76346 16.1034 3.74385 17.3198 4.97584 18.2678" stroke="white" stroke-width="2.5" stroke-linecap="round" stroke-linejoin="round"/>
</g>
<defs>
<clipPath id="clip0_1_267">
<rect width="29.855" height="28.7493" fill="white"/>
</clipPath>
</defs>
</svg>
