<svg width="74" height="72" viewBox="0 0 74 72" fill="none" xmlns="http://www.w3.org/2000/svg">
<path d="M49.2187 38.5091V62.207M24.6094 38.5091V62.207M36.914 44.4335V68.1314M61.5234 49.1139C64.7572 47.75 67.4054 45.3565 69.0234 42.3349C70.6413 39.3134 71.1307 35.8478 70.4092 32.52C69.6877 29.1921 67.7994 26.2046 65.0611 24.0588C62.3229 21.913 58.9014 20.7396 55.3711 20.7356H51.4951C50.52 17.0996 48.6615 13.7387 46.0728 10.9301C43.484 8.12141 40.2392 5.94542 36.6057 4.58145C32.9722 3.21747 29.0541 2.70456 25.1744 3.08499C21.2947 3.46542 17.5643 4.7283 14.2909 6.76954C11.0175 8.81077 8.29478 11.5719 6.34708 14.8254C4.39937 18.0788 3.2825 21.7315 3.08851 25.4822C2.89453 29.2329 3.62898 32.9743 5.23135 36.398C6.83371 39.8218 9.2581 42.8298 12.3047 45.1741" stroke="white" stroke-width="2.5" stroke-linecap="round" stroke-linejoin="round"/>
</svg>
