<svg width="157" height="147" viewBox="0 0 157 147" fill="none" xmlns="http://www.w3.org/2000/svg">
<path d="M96.5839 100.074L97.5812 100.148V100.148L96.5839 100.074ZM80.8703 75.8735L80.5213 76.8106L80.5671 76.8276L80.6144 76.8401L80.8703 75.8735ZM43.3622 21.7717C42.8154 21.6938 42.309 22.0739 42.2311 22.6206L40.9612 31.5306C40.8833 32.0773 41.2633 32.5837 41.8101 32.6617C42.3569 32.7396 42.8633 32.3595 42.9412 31.8128L44.07 23.8928L51.99 25.0216C52.5367 25.0995 53.0431 24.7195 53.1211 24.1727C53.199 23.626 52.8189 23.1196 52.2722 23.0416L43.3622 21.7717ZM112.297 124.274L112.254 125.273C112.674 125.291 113.045 125.294 113.329 125.258C113.456 125.241 113.672 125.206 113.88 125.095C113.992 125.036 114.154 124.928 114.283 124.74C114.426 124.533 114.49 124.287 114.47 124.042C114.437 123.635 114.188 123.375 114.114 123.299C114.003 123.185 113.876 123.089 113.769 123.013C113.548 122.858 113.255 122.687 112.937 122.507C111.631 121.769 109.393 120.615 106.983 118.846C102.173 115.314 96.89 109.483 97.5812 100.148L96.5839 100.074L95.5866 100C94.8227 110.319 100.725 116.732 105.799 120.458C108.332 122.318 110.711 123.547 111.954 124.249C112.273 124.429 112.488 124.558 112.62 124.65C112.688 124.698 112.698 124.711 112.681 124.694C112.672 124.684 112.636 124.647 112.597 124.582C112.559 124.52 112.492 124.39 112.477 124.204C112.46 123.995 112.515 123.781 112.637 123.604C112.747 123.445 112.876 123.364 112.943 123.328C113.062 123.265 113.139 123.266 113.075 123.274C112.975 123.286 112.753 123.293 112.34 123.275L112.297 124.274ZM96.5839 100.074L97.5812 100.148C98.3347 89.97 94.2485 83.625 89.931 79.8505C87.7872 77.9763 85.6001 76.7458 83.9497 75.9831C83.1233 75.6012 82.4278 75.335 81.9345 75.1629C81.6876 75.0769 81.491 75.0143 81.3535 74.9725C81.2847 74.9516 81.2306 74.9359 81.1924 74.9251C81.1733 74.9196 81.1582 74.9154 81.1471 74.9124C81.1416 74.9109 81.1371 74.9097 81.1336 74.9087C81.1318 74.9083 81.1304 74.9079 81.1292 74.9075C81.1286 74.9074 81.1278 74.9072 81.1275 74.9071C81.1269 74.9069 81.1263 74.9068 80.8703 75.8735C80.6144 76.8401 80.6139 76.84 80.6135 76.8399C80.6135 76.8399 80.6132 76.8398 80.6131 76.8398C80.6129 76.8398 80.613 76.8398 80.6134 76.8399C80.614 76.8401 80.6157 76.8405 80.6185 76.8413C80.6239 76.8428 80.6333 76.8454 80.6467 76.8491C80.6733 76.8567 80.7155 76.8689 80.7721 76.8861C80.8853 76.9205 81.0562 76.9748 81.276 77.0514C81.7158 77.2048 82.3503 77.4472 83.1107 77.7987C84.634 78.5026 86.6481 79.637 88.6146 81.3562C92.5177 84.7683 96.2883 90.5235 95.5866 100L96.5839 100.074ZM80.8703 75.8735C81.2194 74.9364 81.2196 74.9364 81.2196 74.9364C81.2195 74.9364 81.2194 74.9364 81.2192 74.9363C81.2187 74.9361 81.2177 74.9357 81.2163 74.9352C81.2135 74.9342 81.209 74.9325 81.2028 74.9301C81.1903 74.9254 81.1711 74.9181 81.1453 74.9082C81.0936 74.8884 81.0158 74.8583 80.9139 74.818C80.71 74.7374 80.4098 74.6163 80.0299 74.456C79.2697 74.1354 78.192 73.6589 76.9293 73.0382C74.3981 71.794 71.1507 69.9836 68.2312 67.7048C65.2976 65.415 62.7832 62.7199 61.5937 59.7319C60.4313 56.8117 60.4967 53.5272 62.8836 49.8634L62.0457 49.3176L61.2078 48.7717C58.4718 52.9714 58.3289 56.9381 59.7356 60.4716C61.1151 63.9372 63.9473 66.8981 67.0006 69.2814C70.068 71.6757 73.4477 73.5554 76.047 74.8331C77.3496 75.4734 78.463 75.9658 79.2526 76.2988C79.6476 76.4654 79.9619 76.5923 80.1788 76.678C80.2873 76.7209 80.3715 76.7535 80.4293 76.7756C80.4581 76.7867 80.4804 76.7952 80.4958 76.801C80.5036 76.8039 80.5095 76.8062 80.5138 76.8078C80.5159 76.8086 80.5176 76.8092 80.5189 76.8097C80.5195 76.8099 80.5201 76.8101 80.5204 76.8102C80.5209 76.8104 80.5213 76.8106 80.8703 75.8735ZM62.0457 49.3176L62.8836 49.8634C64.1793 47.8745 65.1043 46.2199 65.6827 44.8137C66.2594 43.4117 66.5221 42.185 66.4081 41.078C66.1694 38.7596 64.3504 37.4763 62.2549 36.3245C57.9593 33.9633 50.9256 31.3615 44.0209 22.1615L43.2211 22.7617L42.4213 23.362C49.6436 32.9852 57.1451 35.798 61.2915 38.0771C63.4169 39.2455 64.2957 40.0889 64.4187 41.2829C64.4855 41.9323 64.3451 42.8082 63.8331 44.0528C63.3229 45.2932 62.4735 46.8289 61.2078 48.7717L62.0457 49.3176Z" fill="white"/>
<path d="M108.969 91.1324L109.966 91.2062V91.2062L108.969 91.1324ZM93.2552 66.932L92.9061 67.8691L92.952 67.8861L92.9993 67.8986L93.2552 66.932ZM55.7471 12.8302C55.2003 12.7523 54.6939 13.1324 54.616 13.6791L53.3461 22.5891C53.2682 23.1358 53.6482 23.6423 54.195 23.7202C54.7417 23.7981 55.2482 23.418 55.3261 22.8713L56.4549 14.9513L64.3748 16.0801C64.9216 16.158 65.428 15.778 65.5059 15.2312C65.5839 14.6845 65.2038 14.1781 64.657 14.1001L55.7471 12.8302ZM124.682 115.333L124.639 116.332C125.059 116.35 125.43 116.352 125.713 116.316C125.841 116.3 126.057 116.264 126.265 116.154C126.377 116.095 126.538 115.987 126.668 115.798C126.811 115.591 126.875 115.345 126.855 115.1C126.822 114.694 126.573 114.434 126.499 114.358C126.388 114.244 126.261 114.147 126.153 114.071C125.933 113.917 125.64 113.745 125.322 113.565C124.016 112.828 121.777 111.674 119.368 109.904C114.558 106.372 109.275 100.542 109.966 91.2062L108.969 91.1324L107.972 91.0586C107.208 101.377 113.109 107.79 118.184 111.516C120.717 113.376 123.096 114.605 124.339 115.307C124.658 115.487 124.873 115.616 125.005 115.709C125.073 115.756 125.083 115.77 125.066 115.752C125.056 115.743 125.021 115.705 124.982 115.641C124.944 115.579 124.877 115.448 124.862 115.262C124.845 115.053 124.9 114.84 125.022 114.662C125.132 114.504 125.261 114.423 125.328 114.387C125.447 114.324 125.524 114.324 125.46 114.332C125.36 114.345 125.138 114.351 124.725 114.334L124.682 115.333ZM108.969 91.1324L109.966 91.2062C110.72 81.0285 106.633 74.6835 102.316 70.909C100.172 69.0348 97.985 67.8043 96.3346 67.0416C95.5082 66.6597 94.8127 66.3935 94.3193 66.2214C94.0725 66.1354 93.8759 66.0728 93.7384 66.031C93.6696 66.0101 93.6155 65.9944 93.5773 65.9836C93.5582 65.9781 93.543 65.9739 93.532 65.9709C93.5264 65.9694 93.5219 65.9682 93.5185 65.9672C93.5167 65.9668 93.5153 65.9664 93.514 65.966C93.5134 65.9659 93.5127 65.9657 93.5124 65.9656C93.5118 65.9654 93.5112 65.9653 93.2552 66.932C92.9993 67.8986 92.9988 67.8985 92.9984 67.8984C92.9984 67.8984 92.9981 67.8983 92.998 67.8983C92.9978 67.8983 92.9979 67.8983 92.9982 67.8984C92.9989 67.8986 93.0006 67.899 93.0033 67.8998C93.0088 67.9013 93.0182 67.9039 93.0316 67.9076C93.0582 67.9152 93.1004 67.9274 93.157 67.9446C93.2702 67.979 93.4411 68.0333 93.6609 68.1099C94.1007 68.2633 94.7352 68.5057 95.4956 68.8572C97.0189 69.5611 99.033 70.6955 101 72.4147C104.903 75.8268 108.673 81.582 107.972 91.0586L108.969 91.1324ZM93.2552 66.932C93.6043 65.9949 93.6045 65.9949 93.6045 65.9949C93.6044 65.9949 93.6043 65.9949 93.6041 65.9948C93.6035 65.9946 93.6026 65.9942 93.6012 65.9937C93.5984 65.9927 93.5939 65.991 93.5877 65.9886C93.5752 65.9839 93.556 65.9766 93.5301 65.9667C93.4785 65.9469 93.4007 65.9168 93.2988 65.8765C93.0949 65.7959 92.7947 65.6748 92.4147 65.5145C91.6546 65.1939 90.5769 64.7174 89.3142 64.0968C86.783 62.8525 83.5356 61.0421 80.6161 58.7633C77.6825 56.4735 75.1681 53.7784 73.9786 50.7904C72.8162 47.8702 72.8816 44.5857 75.2685 40.9219L74.4306 40.3761L73.5927 39.8302C70.8567 44.0299 70.7138 47.9966 72.1204 51.5301C73.5 54.9957 76.3322 57.9566 79.3855 60.3399C82.4528 62.7342 85.8326 64.6139 88.4319 65.8916C89.7345 66.5319 90.8479 67.0243 91.6375 67.3573C92.0324 67.5239 92.3468 67.6508 92.5637 67.7365C92.6722 67.7794 92.7564 67.812 92.8141 67.8341C92.843 67.8452 92.8653 67.8537 92.8807 67.8595C92.8884 67.8624 92.8944 67.8647 92.8987 67.8663C92.9008 67.8671 92.9025 67.8677 92.9037 67.8682C92.9044 67.8684 92.905 67.8686 92.9053 67.8687C92.9058 67.8689 92.9061 67.8691 93.2552 66.932ZM74.4306 40.3761L75.2685 40.9219C76.5642 38.933 77.4892 37.2784 78.0676 35.8722C78.6443 34.4702 78.907 33.2435 78.793 32.1366C78.5543 29.8181 76.7353 28.5349 74.6398 27.383C70.3441 25.0218 63.3104 22.42 56.4058 13.22L55.606 13.8202L54.8062 14.4205C62.0285 24.0437 69.53 26.8565 73.6764 29.1356C75.8018 30.304 76.6806 31.1474 76.8035 32.3414C76.8704 32.9908 76.73 33.8667 76.218 35.1113C75.7078 36.3517 74.8584 37.8874 73.5927 39.8302L74.4306 40.3761Z" fill="white"/>
<path d="M83.9856 108.947L84.9829 109.021V109.021L83.9856 108.947ZM68.272 84.747L67.9229 85.6841L67.9688 85.7012L68.016 85.7137L68.272 84.747ZM30.7639 30.6453C30.2171 30.5674 29.7107 30.9474 29.6328 31.4942L28.3629 40.4041C28.2849 40.9509 28.665 41.4573 29.2118 41.5352C29.7585 41.6132 30.2649 41.2331 30.3429 40.6863L31.4717 32.7664L39.3916 33.8952C39.9384 33.9731 40.4448 33.5931 40.5227 33.0463C40.6007 32.4995 40.2206 31.9931 39.6738 31.9152L30.7639 30.6453ZM99.6992 133.148L99.6562 134.147C100.076 134.165 100.447 134.167 100.73 134.131C100.858 134.115 101.074 134.079 101.282 133.969C101.394 133.91 101.555 133.802 101.685 133.614C101.828 133.406 101.892 133.16 101.872 132.915C101.839 132.509 101.59 132.249 101.516 132.173C101.405 132.059 101.278 131.962 101.17 131.887C100.95 131.732 100.657 131.56 100.339 131.381C99.0323 130.643 96.7942 129.489 94.3845 127.719C89.5744 124.187 84.2917 118.357 84.9829 109.021L83.9856 108.947L82.9883 108.874C82.2243 119.192 88.1263 125.605 93.2007 129.331C95.7333 131.191 98.1124 132.42 99.3555 133.122C99.6747 133.302 99.8901 133.432 100.022 133.524C100.09 133.571 100.099 133.585 100.083 133.568C100.073 133.558 100.037 133.52 99.9984 133.456C99.9609 133.394 99.8936 133.263 99.8785 133.077C99.8615 132.868 99.9167 132.655 100.039 132.477C100.149 132.319 100.278 132.238 100.345 132.202C100.464 132.139 100.54 132.139 100.477 132.147C100.377 132.16 100.154 132.167 99.7422 132.149L99.6992 133.148ZM83.9856 108.947L84.9829 109.021C85.7364 98.8435 81.6502 92.4985 77.3327 88.724C75.1889 86.8499 73.0018 85.6194 71.3514 84.8567C70.525 84.4748 69.8295 84.2085 69.3361 84.0365C69.0893 83.9504 68.8927 83.8878 68.7552 83.8461C68.6864 83.8252 68.6323 83.8095 68.5941 83.7986C68.575 83.7932 68.5598 83.789 68.5488 83.786C68.5432 83.7844 68.5387 83.7832 68.5353 83.7823C68.5335 83.7818 68.532 83.7814 68.5308 83.7811C68.5302 83.7809 68.5295 83.7807 68.5292 83.7807C68.5286 83.7805 68.528 83.7803 68.272 84.747C68.016 85.7137 68.0156 85.7136 68.0152 85.7135C68.0152 85.7135 68.0148 85.7134 68.0148 85.7134C68.0146 85.7133 68.0147 85.7133 68.015 85.7134C68.0157 85.7136 68.0174 85.7141 68.0201 85.7148C68.0256 85.7163 68.035 85.7189 68.0483 85.7227C68.075 85.7303 68.1172 85.7425 68.1738 85.7597C68.287 85.7941 68.4579 85.8484 68.6777 85.925C69.1175 86.0784 69.752 86.3208 70.5124 86.6722C72.0357 87.3761 74.0498 88.5106 76.0163 90.2298C79.9193 93.6419 83.6899 99.3971 82.9883 108.874L83.9856 108.947ZM68.272 84.747C68.6211 83.8099 68.6212 83.81 68.6213 83.81C68.6212 83.81 68.6211 83.8099 68.6208 83.8098C68.6203 83.8096 68.6194 83.8093 68.618 83.8088C68.6152 83.8077 68.6107 83.806 68.6045 83.8037C68.592 83.799 68.5727 83.7917 68.5469 83.7818C68.4953 83.762 68.4175 83.7318 68.3156 83.6916C68.1117 83.611 67.8115 83.4898 67.4315 83.3296C66.6714 83.009 65.5937 82.5325 64.331 81.9118C61.7998 80.6676 58.5523 78.8572 55.6329 76.5784C52.6993 74.2885 50.1849 71.5934 48.9954 68.6054C47.833 65.6853 47.8984 62.4008 50.2853 58.737L49.4474 58.1912L48.6095 57.6453C45.8735 61.845 45.7306 65.8116 47.1372 69.3451C48.5168 72.8107 51.349 75.7717 54.4022 78.1549C57.4696 80.5492 60.8494 82.429 63.4487 83.7067C64.7513 84.347 65.8647 84.8394 66.6543 85.1724C67.0492 85.339 67.3636 85.4658 67.5805 85.5516C67.689 85.5945 67.7732 85.6271 67.8309 85.6492C67.8598 85.6603 67.8821 85.6687 67.8975 85.6746C67.9052 85.6775 67.9112 85.6797 67.9155 85.6813C67.9176 85.6821 67.9193 85.6828 67.9205 85.6832C67.9211 85.6835 67.9217 85.6837 67.9221 85.6838C67.9226 85.684 67.9229 85.6841 68.272 84.747ZM49.4474 58.1912L50.2853 58.737C51.581 56.7481 52.5059 55.0934 53.0844 53.6872C53.6611 52.2853 53.9238 51.0585 53.8098 49.9516C53.571 47.6332 51.7521 46.3499 49.6566 45.198C45.3609 42.8368 38.3272 40.235 31.4226 31.035L30.6228 31.6353L29.823 32.2355C37.0453 41.8588 44.5468 44.6715 48.6931 46.9507C50.8186 48.119 51.6974 48.9624 51.8203 50.1565C51.8872 50.8058 51.7468 51.6818 51.2348 52.9264C50.7245 54.1667 49.8752 55.7025 48.6095 57.6453L49.4474 58.1912Z" fill="white"/>
</svg>
