<svg width="158" height="165" viewBox="0 0 158 165" fill="none" xmlns="http://www.w3.org/2000/svg">
<path d="M75.9244 114.372L76.6461 115.064V115.064L75.9244 114.372ZM79.2273 85.7076L78.3613 86.2075L78.3857 86.2499L78.4142 86.2897L79.2273 85.7076ZM84.7771 20.1099C84.4053 19.7015 83.7728 19.6719 83.3645 20.0437L76.7099 26.1031C76.3015 26.4749 76.2719 27.1074 76.6437 27.5158C77.0155 27.9241 77.648 27.9537 78.0564 27.5819L83.9716 22.1958L89.3577 28.111C89.7295 28.5194 90.362 28.549 90.7704 28.1772C91.1787 27.8053 91.2083 27.1729 90.8365 26.7645L84.7771 20.1099ZM72.6214 143.037L71.9518 143.78C72.264 144.061 72.5486 144.299 72.7899 144.452C72.8988 144.521 73.0876 144.631 73.3183 144.678C73.4425 144.704 73.6357 144.723 73.8557 144.661C74.0979 144.592 74.3038 144.443 74.4444 144.242C74.6778 143.908 74.6517 143.549 74.6431 143.443C74.6302 143.284 74.5938 143.129 74.5589 143.002C74.4875 142.742 74.3712 142.423 74.2404 142.082C73.7032 140.681 72.7129 138.366 71.9825 135.467C70.5246 129.68 70.1664 121.821 76.6461 115.064L75.9244 114.372L75.2026 113.68C68.0407 121.148 68.5051 129.851 70.0431 135.956C70.8108 139.002 71.8618 141.465 72.3729 142.798C72.5042 143.141 72.5879 143.377 72.6305 143.532C72.6525 143.612 72.6516 143.629 72.6496 143.605C72.6485 143.591 72.6449 143.54 72.6559 143.465C72.6664 143.394 72.6978 143.25 72.8046 143.097C72.9246 142.925 73.1031 142.796 73.3106 142.737C73.4959 142.684 73.6471 142.704 73.7218 142.719C73.8534 142.746 73.9125 142.795 73.8583 142.761C73.7732 142.707 73.5974 142.57 73.291 142.294L72.6214 143.037ZM75.9244 114.372L76.6461 115.064C83.7103 107.699 84.6022 100.205 83.6784 94.545C83.2197 91.7347 82.3176 89.3929 81.5312 87.7537C81.1374 86.9329 80.7709 86.2846 80.5002 85.8377C80.3648 85.6141 80.2531 85.4406 80.1737 85.3208C80.134 85.2609 80.1023 85.2143 80.0797 85.1816C80.0685 85.1653 80.0595 85.1524 80.0529 85.143C80.0496 85.1383 80.0469 85.1345 80.0448 85.1316C80.0437 85.1301 80.0429 85.1289 80.0421 85.1278C80.0418 85.1273 80.0413 85.1267 80.0412 85.1265C80.0408 85.1259 80.0404 85.1254 79.2273 85.7076C78.4142 86.2897 78.4139 86.2893 78.4137 86.289C78.4137 86.2889 78.4135 86.2887 78.4134 86.2886C78.4133 86.2885 78.4134 86.2885 78.4136 86.2888C78.414 86.2894 78.415 86.2908 78.4167 86.2931C78.4199 86.2977 78.4255 86.3058 78.4334 86.3172C78.4491 86.34 78.4738 86.3763 78.5065 86.4256C78.5719 86.5243 78.669 86.6749 78.7896 86.874C79.031 87.2724 79.3656 87.8635 79.728 88.6187C80.4538 90.1317 81.2837 92.2892 81.7045 94.8671C82.5396 99.9837 81.7801 106.822 75.2026 113.68L75.9244 114.372ZM79.2273 85.7076C80.0933 85.2076 80.0934 85.2077 80.0935 85.2077C80.0934 85.2076 80.0934 85.2076 80.0932 85.2073C80.0929 85.2068 80.0924 85.206 80.0917 85.2047C80.0902 85.2021 80.0878 85.1979 80.0845 85.1921C80.0779 85.1806 80.0677 85.1627 80.0541 85.1386C80.0269 85.0905 79.9861 85.0177 79.9332 84.9217C79.8274 84.7297 79.6731 84.4451 79.4823 84.0795C79.1006 83.3482 78.5734 82.2943 77.9954 81.0115C76.8368 78.44 75.4867 74.9758 74.6878 71.3594C73.8851 67.7256 73.6637 64.0464 74.6501 60.9853C75.6142 57.9938 77.7569 55.5036 81.9307 54.1998L81.6325 53.2453L81.3344 52.2908C76.5501 53.7853 73.9131 56.752 72.7466 60.3719C71.6024 63.9221 71.8994 68.0087 72.7349 71.7908C73.5743 75.5904 74.9821 79.1924 76.1719 81.8331C76.7682 83.1565 77.3128 84.2452 77.7093 85.0049C77.9076 85.3849 78.0691 85.683 78.1818 85.8873C78.2381 85.9894 78.2822 86.0682 78.3126 86.122C78.3278 86.149 78.3396 86.1697 78.3478 86.184C78.3519 86.1911 78.3551 86.1967 78.3573 86.2006C78.3584 86.2026 78.3593 86.2042 78.36 86.2053C78.3603 86.2059 78.3607 86.2065 78.3608 86.2067C78.3611 86.2072 78.3613 86.2075 79.2273 85.7076ZM81.6325 53.2453L81.9307 54.1998C84.1965 53.4921 85.9635 52.8058 87.3052 52.0903C88.6428 51.3769 89.6268 50.5986 90.244 49.6727C91.5368 47.7335 90.9521 45.5855 90.0705 43.3627C88.2633 38.8062 84.4987 32.3201 85.0366 20.8299L84.0377 20.7831L83.0388 20.7364C82.4761 32.7552 86.467 39.7019 88.2114 44.1001C89.1056 46.3546 89.2457 47.5646 88.5799 48.5634C88.2178 49.1065 87.5516 49.6923 86.3641 50.3255C85.1806 50.9566 83.5476 51.5995 81.3344 52.2908L81.6325 53.2453Z" fill="white"/>
<path d="M91.1672 115.369L91.8889 116.061V116.061L91.1672 115.369ZM94.4701 86.7043L93.6041 87.2043L93.6285 87.2466L93.657 87.2864L94.4701 86.7043ZM100.02 21.1066C99.6481 20.6982 99.0156 20.6686 98.6073 21.0404L91.9526 27.0998C91.5443 27.4716 91.5147 28.1041 91.8865 28.5125C92.2583 28.9208 92.8908 28.9504 93.2992 28.5786L99.2144 23.1925L104.601 29.1077C104.972 29.5161 105.605 29.5457 106.013 29.1739C106.422 28.802 106.451 28.1696 106.079 27.7612L100.02 21.1066ZM87.8642 144.034L87.1946 144.776C87.5068 145.058 87.7914 145.296 88.0326 145.449C88.1416 145.517 88.3304 145.627 88.5611 145.675C88.6853 145.7 88.8785 145.72 89.0985 145.658C89.3407 145.589 89.5466 145.44 89.6872 145.239C89.9206 144.904 89.8945 144.545 89.8859 144.44C89.873 144.281 89.8366 144.126 89.8017 143.999C89.7303 143.739 89.614 143.42 89.4832 143.079C88.946 141.678 87.9557 139.363 87.2253 136.464C85.7674 130.677 85.4092 122.817 91.8889 116.061L91.1672 115.369L90.4454 114.677C83.2835 122.144 83.7479 130.847 85.2859 136.952C86.0535 139.999 87.1046 142.462 87.6157 143.795C87.747 144.137 87.8307 144.374 87.8733 144.529C87.8953 144.609 87.8944 144.625 87.8924 144.601C87.8913 144.588 87.8877 144.536 87.8987 144.462C87.9092 144.39 87.9406 144.247 88.0474 144.094C88.1674 143.922 88.3459 143.792 88.5534 143.734C88.7387 143.681 88.8899 143.701 88.9646 143.716C89.0962 143.743 89.1553 143.792 89.1011 143.758C89.016 143.704 88.8402 143.567 88.5338 143.291L87.8642 144.034ZM91.1672 115.369L91.8889 116.061C98.9531 108.696 99.845 101.202 98.9212 95.5417C98.4625 92.7314 97.5604 90.3896 96.774 88.7504C96.3802 87.9296 96.0137 87.2813 95.743 86.8344C95.6076 86.6108 95.4959 86.4373 95.4165 86.3175C95.3768 86.2576 95.3451 86.211 95.3225 86.1783C95.3113 86.162 95.3023 86.1491 95.2957 86.1397C95.2924 86.135 95.2897 86.1312 95.2876 86.1283C95.2865 86.1268 95.2857 86.1256 95.2849 86.1245C95.2846 86.124 95.2841 86.1234 95.284 86.1232C95.2836 86.1226 95.2832 86.1221 94.4701 86.7043C93.657 87.2864 93.6567 87.286 93.6565 87.2857C93.6565 87.2856 93.6563 87.2854 93.6562 87.2853C93.6561 87.2852 93.6562 87.2852 93.6564 87.2855C93.6568 87.2861 93.6578 87.2875 93.6595 87.2898C93.6627 87.2945 93.6683 87.3025 93.6762 87.3139C93.6919 87.3367 93.7166 87.373 93.7493 87.4223C93.8147 87.521 93.9118 87.6716 94.0324 87.8707C94.2738 88.2691 94.6084 88.8602 94.9708 89.6155C95.6966 91.1284 96.5265 93.2859 96.9473 95.8638C97.7824 100.98 97.0229 107.819 90.4454 114.677L91.1672 115.369ZM94.4701 86.7043C95.3361 86.2043 95.3362 86.2044 95.3362 86.2044C95.3362 86.2043 95.3361 86.2043 95.336 86.204C95.3357 86.2036 95.3352 86.2027 95.3345 86.2014C95.333 86.1988 95.3306 86.1946 95.3273 86.1888C95.3207 86.1773 95.3105 86.1594 95.2969 86.1353C95.2697 86.0872 95.2289 86.0144 95.176 85.9184C95.0702 85.7264 94.9159 85.4418 94.7251 85.0762C94.3434 84.3449 93.8162 83.291 93.2382 82.0083C92.0796 79.4367 90.7295 75.9725 89.9306 72.3561C89.1279 68.7223 88.9065 65.0431 89.8929 61.982C90.857 58.9906 92.9997 56.5003 97.1735 55.1965L96.8753 54.242L96.5772 53.2875C91.7929 54.782 89.1559 57.7487 87.9894 61.3686C86.8452 64.9189 87.1422 69.0054 87.9777 72.7875C88.8171 76.5871 90.2249 80.1891 91.4147 82.8298C92.011 84.1532 92.5556 85.2419 92.9521 86.0017C93.1504 86.3816 93.3119 86.6797 93.4246 86.884C93.4809 86.9861 93.525 87.0649 93.5554 87.1187C93.5706 87.1457 93.5824 87.1664 93.5906 87.1807C93.5947 87.1879 93.5979 87.1934 93.6001 87.1973C93.6012 87.1993 93.6021 87.2009 93.6028 87.202C93.6031 87.2026 93.6035 87.2032 93.6036 87.2034C93.6039 87.2039 93.6041 87.2043 94.4701 86.7043ZM96.8753 54.242L97.1735 55.1965C99.4393 54.4888 101.206 53.8025 102.548 53.087C103.886 52.3736 104.87 51.5953 105.487 50.6694C106.78 48.7302 106.195 46.5822 105.313 44.3594C103.506 39.8029 99.7415 33.3168 100.279 21.8266L99.2805 21.7798L98.2816 21.7331C97.7189 33.7519 101.71 40.6986 103.454 45.0968C104.348 47.3514 104.488 48.5613 103.823 49.5601C103.461 50.1032 102.794 50.689 101.607 51.3222C100.423 51.9533 98.7904 52.5962 96.5772 53.2875L96.8753 54.242Z" fill="white"/>
<path d="M60.5603 113.187L61.282 113.879V113.879L60.5603 113.187ZM63.8632 84.5226L62.9972 85.0226L63.0217 85.0649L63.0501 85.1047L63.8632 84.5226ZM69.4131 18.9249C69.0412 18.5165 68.4088 18.4869 68.0004 18.8587L61.3458 24.9181C60.9374 25.2899 60.9078 25.9224 61.2796 26.3308C61.6515 26.7391 62.2839 26.7687 62.6923 26.3969L68.6075 21.0108L73.9936 26.926C74.3655 27.3344 74.9979 27.364 75.4063 26.9922C75.8147 26.6203 75.8443 25.9879 75.4724 25.5795L69.4131 18.9249ZM57.2573 141.852L56.5878 142.595C56.8999 142.876 57.1845 143.114 57.4258 143.267C57.5347 143.336 57.7235 143.446 57.9543 143.493C58.0785 143.519 58.2717 143.538 58.4916 143.476C58.7338 143.407 58.9397 143.258 59.0803 143.057C59.3137 142.723 59.2876 142.364 59.279 142.258C59.2661 142.099 59.2297 141.944 59.1948 141.817C59.1234 141.557 59.0071 141.238 58.8763 140.897C58.3391 139.496 57.3488 137.181 56.6185 134.282C55.1605 128.495 54.8023 120.636 61.282 113.879L60.5603 113.187L59.8386 112.495C52.6766 119.963 53.141 128.666 54.6791 134.771C55.4467 137.817 56.4977 140.28 57.0089 141.613C57.1401 141.956 57.2238 142.192 57.2664 142.347C57.2884 142.427 57.2875 142.444 57.2856 142.42C57.2845 142.406 57.2808 142.355 57.2918 142.28C57.3023 142.209 57.3338 142.065 57.4405 141.912C57.5605 141.74 57.739 141.611 57.9465 141.552C58.1318 141.499 58.2831 141.519 58.3577 141.534C58.4893 141.561 58.5484 141.61 58.4942 141.576C58.4091 141.522 58.2333 141.385 57.9269 141.109L57.2573 141.852ZM60.5603 113.187L61.282 113.879C68.3462 106.514 69.2381 99.0199 68.3143 93.36C67.8556 90.5497 66.9535 88.2079 66.1671 86.5687C65.7734 85.7479 65.4069 85.0996 65.1361 84.6527C65.0007 84.4291 64.889 84.2556 64.8096 84.1358C64.7699 84.0759 64.7382 84.0293 64.7157 83.9966C64.7044 83.9803 64.6954 83.9674 64.6888 83.958C64.6855 83.9533 64.6828 83.9495 64.6807 83.9466C64.6797 83.9451 64.6788 83.9439 64.6781 83.9428C64.6777 83.9423 64.6773 83.9417 64.6771 83.9415C64.6767 83.9409 64.6763 83.9404 63.8632 84.5226C63.0501 85.1047 63.0499 85.1043 63.0496 85.104C63.0496 85.1039 63.0494 85.1037 63.0494 85.1036C63.0493 85.1035 63.0493 85.1035 63.0495 85.1038C63.0499 85.1044 63.051 85.1058 63.0526 85.1081C63.0558 85.1127 63.0614 85.1208 63.0693 85.1322C63.085 85.155 63.1098 85.1913 63.1424 85.2406C63.2078 85.3393 63.3049 85.4899 63.4256 85.689C63.6669 86.0874 64.0016 86.6785 64.3639 87.4337C65.0897 88.9467 65.9197 91.1042 66.3404 93.6821C67.1756 98.7987 66.416 105.637 59.8386 112.495L60.5603 113.187ZM63.8632 84.5226C64.7293 84.0226 64.7294 84.0227 64.7294 84.0227C64.7293 84.0226 64.7293 84.0226 64.7291 84.0223C64.7289 84.0219 64.7283 84.021 64.7276 84.0197C64.7261 84.0171 64.7237 84.0129 64.7204 84.0071C64.7138 83.9956 64.7036 83.9777 64.69 83.9536C64.6629 83.9055 64.6221 83.8327 64.5692 83.7367C64.4633 83.5447 64.3091 83.2601 64.1183 82.8945C63.7365 82.1632 63.2093 81.1093 62.6313 79.8266C61.4727 77.255 60.1226 73.7908 59.3238 70.1744C58.521 66.5406 58.2996 62.8614 59.2861 59.8003C60.2501 56.8089 62.3928 54.3186 66.5666 53.0148L66.2685 52.0603L65.9703 51.1058C61.186 52.6003 58.549 55.567 57.3825 59.1869C56.2383 62.7372 56.5354 66.8237 57.3708 70.6058C58.2102 74.4054 59.6181 78.0074 60.8079 80.6481C61.4041 81.9715 61.9487 83.0602 62.3452 83.82C62.5436 84.1999 62.7051 84.498 62.8177 84.7023C62.874 84.8044 62.9181 84.8832 62.9485 84.937C62.9637 84.964 62.9755 84.9847 62.9837 84.999C62.9878 85.0062 62.991 85.0117 62.9932 85.0156C62.9944 85.0176 62.9953 85.0192 62.9959 85.0203C62.9963 85.0209 62.9966 85.0215 62.9967 85.0217C62.997 85.0222 62.9972 85.0226 63.8632 84.5226ZM66.2685 52.0603L66.5666 53.0148C68.8324 52.3071 70.5994 51.6208 71.9411 50.9053C73.2787 50.1919 74.2627 49.4136 74.8799 48.4877C76.1727 46.5485 75.588 44.4005 74.7064 42.1777C72.8992 37.6212 69.1346 31.1351 69.6726 19.6449L68.6737 19.5981L67.6748 19.5514C67.112 31.5702 71.1029 38.5169 72.8473 42.9151C73.7415 45.1696 73.8816 46.3796 73.2158 47.3784C72.8537 47.9215 72.1875 48.5073 71 49.1405C69.8166 49.7716 68.1836 50.4145 65.9703 51.1058L66.2685 52.0603Z" fill="white"/>
</svg>
