<svg width="79" height="79" viewBox="0 0 79 79" fill="none" xmlns="http://www.w3.org/2000/svg">
<path d="M77 39.5L70.1818 39.5M8.81818 39.5L2 39.5M66.0227 12.9773L61.1818 17.8182M17.8182 61.1818L12.9773 66.0227M39.5 2L39.5 8.81818M39.5 70.1818L39.5 77M12.9773 12.9773L17.8182 17.8182M61.1818 61.1818L66.0227 66.0227M39.5 56.5455C30.0861 56.5455 22.4545 48.9139 22.4545 39.5C22.4545 30.0861 30.0861 22.4545 39.5 22.4545C48.9139 22.4545 56.5455 30.0861 56.5455 39.5C56.5455 48.9139 48.9139 56.5455 39.5 56.5455Z" stroke="#FFCC00" stroke-width="4" stroke-linecap="round" stroke-linejoin="round"/>
</svg>
