<svg width="132" height="132" viewBox="0 0 132 132" fill="none" xmlns="http://www.w3.org/2000/svg">
<path d="M129.417 65.7083L117.833 65.7083M13.5834 65.7083L2.00002 65.7083M110.768 20.6492L102.543 28.8733M28.8733 102.543L20.6492 110.767M65.7084 2L65.7084 13.5833M65.7084 117.833L65.7083 129.417M20.6492 20.6492L28.8734 28.8733M102.543 102.543L110.768 110.768M65.7084 94.6667C49.7151 94.6667 36.75 81.7016 36.75 65.7083C36.75 49.7151 49.7151 36.75 65.7084 36.75C81.7016 36.75 94.6667 49.7151 94.6667 65.7083C94.6667 81.7016 81.7016 94.6667 65.7084 94.6667Z" stroke="#FFCC00" stroke-width="4" stroke-linecap="round" stroke-linejoin="round"/>
</svg>
