<svg width="33" height="35" viewBox="0 0 33 35" fill="none" xmlns="http://www.w3.org/2000/svg">
<path d="M12.8133 6.55566C13.1236 6.22189 13.5064 5.97528 13.9274 5.83773C14.3484 5.70019 14.7947 5.67598 15.2266 5.76725C15.6585 5.85852 16.0626 6.06245 16.403 6.36091C16.7434 6.65936 17.0096 7.0431 17.1778 7.47801C17.346 7.91292 17.4111 8.38552 17.3673 8.8538C17.3235 9.32209 17.1721 9.77154 16.9267 10.1622C16.6812 10.5529 16.3492 10.8727 15.9603 11.0932C15.5713 11.3136 15.1374 11.428 14.6972 11.426H2.67221M16.8216 27.7223C17.132 28.0561 17.5147 28.3027 17.9357 28.4403C18.3567 28.5778 18.803 28.602 19.2349 28.5107C19.6668 28.4195 20.071 28.2155 20.4114 27.9171C20.7518 27.6186 21.0179 27.2349 21.1861 26.8C21.3544 26.3651 21.4195 25.8925 21.3756 25.4242C21.3318 24.9559 21.1805 24.5064 20.935 24.1158C20.6895 23.7251 20.3575 23.4053 19.9686 23.1848C19.5796 22.9644 19.1457 22.85 18.7055 22.852H2.67221M23.6891 11.0404C24.0778 10.626 24.5559 10.3204 25.0813 10.1506C25.6067 9.98076 26.1631 9.95195 26.7014 10.0667C27.2397 10.1815 27.7432 10.4362 28.1674 10.8085C28.5917 11.1808 28.9236 11.6591 29.1337 12.2011C29.3439 12.7431 29.4259 13.3321 29.3725 13.9161C29.319 14.5 29.1318 15.0609 28.8273 15.5491C28.5228 16.0372 28.1105 16.4377 27.6268 16.715C27.1431 16.9923 26.6029 17.1379 26.0541 17.139H2.67221" stroke="#1E1E1E" stroke-width="4" stroke-linecap="round" stroke-linejoin="round"/>
</svg>
