<svg width="80" height="85" viewBox="0 0 80 85" fill="none" xmlns="http://www.w3.org/2000/svg">
<path d="M31.6857 16.2114C32.4533 15.3861 33.3997 14.7762 34.4409 14.4361C35.482 14.0959 36.5857 14.0361 37.6537 14.2618C38.7218 14.4875 39.7211 14.9918 40.5628 15.7298C41.4046 16.4679 42.0628 17.4168 42.4788 18.4923C42.8948 19.5678 43.0558 20.7365 42.9474 21.8945C42.8391 23.0525 42.4647 24.1639 41.8577 25.13C41.2507 26.0961 40.4297 26.8869 39.4679 27.4321C38.5061 27.9773 37.4331 28.2601 36.3444 28.2552H6.60809M41.5978 68.5541C42.3654 69.3795 43.3118 69.9894 44.353 70.3295C45.3941 70.6696 46.4978 70.7295 47.5658 70.5038C48.6339 70.2781 49.6332 69.7738 50.4749 69.0357C51.3167 68.2977 51.9749 67.3487 52.3909 66.2733C52.8069 65.1978 52.9679 64.0291 52.8595 62.8711C52.7512 61.7131 52.3768 60.6016 51.7698 59.6355C51.1628 58.6694 50.3418 57.8786 49.38 57.3334C48.4182 56.7882 47.3452 56.5055 46.2565 56.5104H6.60809M58.5805 27.3016C59.5415 26.2769 60.7239 25.5212 62.0231 25.1012C63.3223 24.6813 64.6983 24.6101 66.0294 24.8938C67.3605 25.1776 68.6057 25.8076 69.6548 26.7282C70.7039 27.6488 71.5247 28.8316 72.0444 30.1719C72.5642 31.5122 72.7669 32.9688 72.6347 34.4129C72.5026 35.8569 72.0395 37.2438 71.2866 38.4511C70.5337 39.6583 69.5141 40.6486 68.3179 41.3343C67.1218 42.0201 65.786 42.3802 64.4287 42.3828H6.60809" stroke="white" stroke-width="4" stroke-linecap="round" stroke-linejoin="round"/>
</svg>
